<?xml version="1.0" encoding="utf-8"?>
<!-- Generator: Adobe Illustrator 21.1.0, SVG Export Plug-In . SVG Version: 6.00 Build 0)  -->
<svg version="1.1" id="Capa_1" xmlns="http://www.w3.org/2000/svg" xmlns:xlink="http://www.w3.org/1999/xlink" x="0px" y="0px"
	 viewBox="0 0 53 53" style="enable-background:new 0 0 53 53;" xml:space="preserve">
<style type="text/css">
	.st0{fill:#138D90;}
	.st1{fill:#E5CB77;}
</style>
<path class="st0" d="M37.7,5.3L37.7,5.3c-7.1-7.1-18.6-7.1-25.7,0l0,0C5.6,11.7,4.8,23.8,10.3,31l14.5,21l14.5-21
	C44.8,23.8,44.1,11.7,37.7,5.3z M25,24c-3.3,0-6-2.7-6-6s2.7-6,6-6s6,2.7,6,6S28.3,24,25,24z"/>
<g>
	<polygon class="st1" points="34.4,31 38.1,38.2 46.4,39.4 40.4,45 41.8,53 34.4,49.2 27,53 28.4,45 22.4,39.4 30.7,38.2 	"/>
</g>
</svg>
