
<svg version="1.1" id="Capa_1" xmlns="http://www.w3.org/2000/svg" xmlns:xlink="http://www.w3.org/1999/xlink" x="0px" y="0px"
	 viewBox="0 0 53 53" width="53" height="53" style="enable-background:new 0 0 53 53;" xml:space="preserve">
<g>
	<path style="fill:#0096E6;" d="M37.658,5.324L37.658,5.324c-7.098-7.098-18.607-7.098-25.706,0h0
		C5.556,11.72,4.837,23.763,10.264,31l14.541,21l14.541-21C44.774,23.763,44.054,11.72,37.658,5.324z M24.982,24
		c-3.314,0-6-2.686-6-6s2.686-6,6-6s6,2.686,6,6S28.296,24,24.982,24z"/>
	<g>
		<polygon style="fill:#F29C21;" points="34.372,31 38.08,38.242 46.372,39.403 40.372,45.04 41.788,53 34.372,49.242 26.955,53 
			28.372,45.04 22.372,39.403 30.663,38.242 		"/>
	</g>
</g>
<g>
</g>
<g>
</g>
<g>
</g>
<g>
</g>
<g>
</g>
<g>
</g>
<g>
</g>
<g>
</g>
<g>
</g>
<g>
</g>
<g>
</g>
<g>
</g>
<g>
</g>
<g>
</g>
<g>
</g>
</svg>
