<?xml version="1.0" encoding="utf-8"?>
<!-- Generator: Adobe Illustrator 21.1.0, SVG Export Plug-In . SVG Version: 6.00 Build 0)  -->
<svg version="1.1" id="Capa_1" xmlns="http://www.w3.org/2000/svg" xmlns:xlink="http://www.w3.org/1999/xlink" x="0px" y="0px"
	 viewBox="0 0 54 54" style="enable-background:new 0 0 54 54;" xml:space="preserve">
<style type="text/css">
	.st0{fill:#FF4447;}
	.st1{fill:#D0E8F9;}
	.st2{fill:#EAF6FD;}
	.st3{fill:#8697CB;}
</style>
<path class="st0" d="M36.8,5.3L36.8,5.3c-7.1-7.1-18.6-7.1-25.7,0l0,0C4.7,11.7,4,23.8,9.4,31L24,52l14.5-21
	C43.9,23.8,43.2,11.7,36.8,5.3z M24.1,24c-3.3,0-6-2.7-6-6s2.7-6,6-6s6,2.7,6,6S27.5,24,24.1,24z"/>
<g>
	<circle class="st1" cx="34" cy="38.8" r="9.8"/>
	<path class="st2" d="M37.5,29.7L24.9,42.3c0.7,1.8,1.9,3.4,3.5,4.5L42,33.2C40.9,31.6,39.3,30.4,37.5,29.7z"/>
	<path class="st3" d="M47.9,52.3l-6-6.2c1.7-1.9,2.8-4.5,2.8-7.3c0-6-4.8-10.8-10.8-10.8s-10.8,4.8-10.8,10.8S28,49.6,34,49.6
		c2.4,0,4.7-0.8,6.5-2.2l6,6.3c0.2,0.2,0.5,0.3,0.7,0.3s0.5-0.1,0.7-0.3C48.3,53.3,48.3,52.7,47.9,52.3z M25.2,38.8
		c0-4.8,3.9-8.8,8.8-8.8s8.8,3.9,8.8,8.8s-3.9,8.8-8.8,8.8S25.2,43.6,25.2,38.8z"/>
</g>
</svg>
